<svg xmlns="http://www.w3.org/2000/svg" viewBox="0 0 700 820" role="img" aria-label="Groom portrait placeholder">
  <defs>
    <linearGradient id="bg" x1="0" x2="1" y1="0" y2="1"><stop stop-color="#fffaf2"/><stop offset="1" stop-color="#e9cf73"/></linearGradient>
    <linearGradient id="silk" x1="0" x2="1"><stop stop-color="#f8f5ef"/><stop offset="1" stop-color="#d4af37"/></linearGradient>
  </defs>
  <rect width="700" height="820" fill="url(#bg)"/>
  <circle cx="350" cy="245" r="104" fill="#6d1f2f" opacity=".16"/>
  <circle cx="350" cy="238" r="74" fill="#7b4a32"/>
  <path d="M265 220c18-70 128-86 170 0-46-22-91-22-170 0z" fill="#241a16"/>
  <path d="M206 778c16-198 84-316 144-316s128 118 144 316z" fill="url(#silk)"/>
  <path d="M236 780c8-160 58-258 114-258s106 98 114 258z" fill="#fffaf2"/>
  <path d="M305 420h90v95c-24 22-66 22-90 0z" fill="#7b4a32"/>
  <path d="M174 160c95-92 258-92 352 0" fill="none" stroke="#d4af37" stroke-width="10"/>
  <path d="M138 700h424" stroke="#6d1f2f" stroke-width="8" opacity=".35"/>
</svg>
