<svg xmlns="http://www.w3.org/2000/svg" viewBox="0 0 1600 1000" preserveAspectRatio="xMidYMid slice">
  <defs>
    <linearGradient id="sky" x1="0" x2="1" y1="0" y2="1">
      <stop stop-color="#2d1014"/>
      <stop offset=".5" stop-color="#6d1f2f"/>
      <stop offset="1" stop-color="#20130f"/>
    </linearGradient>
    <radialGradient id="halo" cx=".5" cy=".32" r=".42">
      <stop stop-color="#fff1ae" stop-opacity=".7"/>
      <stop offset=".45" stop-color="#d4af37" stop-opacity=".18"/>
      <stop offset="1" stop-color="#d4af37" stop-opacity="0"/>
    </radialGradient>
    <pattern id="lotus" width="120" height="120" patternUnits="userSpaceOnUse">
      <path d="M60 20c18 20 18 38 0 56-18-18-18-36 0-56zm0 36c28-3 44 8 48 30-26 3-42-8-48-30zm0 0c-28-3-44 8-48 30 26 3 42-8 48-30z" fill="none" stroke="#f1d77a" stroke-opacity=".18"/>
    </pattern>
  </defs>
  <rect width="1600" height="1000" fill="url(#sky)"/>
  <rect width="1600" height="1000" fill="url(#lotus)"/>
  <rect width="1600" height="1000" fill="url(#halo)"/>
  <path d="M0 760h1600v240H0z" fill="#170d0b" opacity=".72"/>
  <g fill="#1d1110">
    <path d="M105 758h230v-85h-25v-72h-31v-54h-45v54h-31v72h-25z"/>
    <path d="M1275 758h230v-85h-25v-72h-31v-54h-45v54h-31v72h-25z"/>
    <path d="M640 760h320v-96h-34v-85h-46v-62h-80v62h-46v85h-34z"/>
  </g>
  <g stroke="#d4af37" stroke-opacity=".28" fill="none">
    <path d="M0 782c230-46 402-46 610 0s396 46 650 0 340-40 500 0"/>
    <path d="M0 830c250-36 402-36 610 0s396 36 650 0 340-30 500 0"/>
  </g>
</svg>
