<svg xmlns="http://www.w3.org/2000/svg" viewBox="0 0 900 680" role="img" aria-label="Luxury reception stage illustration">
  <defs>
    <linearGradient id="b" x1="0" x2="1" y1="0" y2="1"><stop stop-color="#40151b"/><stop offset="1" stop-color="#f8f5ef"/></linearGradient>
    <radialGradient id="l" cx=".5" cy=".2" r=".55"><stop stop-color="#fff3bc"/><stop offset=".55" stop-color="#d4af37" stop-opacity=".28"/><stop offset="1" stop-color="#d4af37" stop-opacity="0"/></radialGradient>
  </defs>
  <rect width="900" height="680" fill="url(#b)"/>
  <rect width="900" height="680" fill="url(#l)"/>
  <path d="M110 520h680v74H110z" fill="#6d1f2f"/>
  <path d="M170 390h560v140H170z" fill="#fffaf2"/>
  <path d="M230 330h440v80H230z" fill="#d4af37"/>
  <path d="M290 260h320v82H290z" fill="#6d1f2f"/>
  <g fill="#f1d77a" opacity=".8">
    <circle cx="240" cy="245" r="34"/><circle cx="312" cy="228" r="27"/><circle cx="380" cy="238" r="30"/>
    <circle cx="620" cy="245" r="34"/><circle cx="548" cy="228" r="27"/><circle cx="480" cy="238" r="30"/>
  </g>
  <g stroke="#fff2a6" stroke-width="6" opacity=".6">
    <path d="M160 70l140 360"/><path d="M740 70L600 430"/><path d="M450 40v430"/>
  </g>
</svg>
