<svg xmlns="http://www.w3.org/2000/svg" viewBox="0 0 900 680" role="img" aria-label="Kerala temple ceremony illustration">
  <defs>
    <linearGradient id="bg" x1="0" x2="1" y1="0" y2="1"><stop stop-color="#fffaf2"/><stop offset="1" stop-color="#f1d77a"/></linearGradient>
    <linearGradient id="gold" x1="0" x2="1"><stop stop-color="#fff1ad"/><stop offset=".52" stop-color="#d4af37"/><stop offset="1" stop-color="#8d5a22"/></linearGradient>
  </defs>
  <rect width="900" height="680" fill="url(#bg)"/>
  <circle cx="450" cy="220" r="180" fill="#d4af37" opacity=".2"/>
  <path d="M170 500h560v70H170z" fill="#6d1f2f"/>
  <path d="M230 420h440v90H230z" fill="#8b2d34"/>
  <path d="M190 410h520L450 230z" fill="url(#gold)"/>
  <path d="M270 360h360L450 180z" fill="#6d1f2f"/>
  <path d="M335 304h230L450 108z" fill="url(#gold)"/>
  <path d="M410 420h80v150h-80z" fill="#271514"/>
  <g fill="#d4af37">
    <circle cx="320" cy="480" r="23"/><circle cx="580" cy="480" r="23"/>
    <path d="M146 570h708v28H146z"/>
  </g>
  <g stroke="#6d1f2f" stroke-width="8" fill="none" opacity=".45">
    <path d="M210 620c80-48 180-48 260 0s180 48 260 0"/>
  </g>
</svg>
